# xmcd CD database file generated by Grip 3.2.0
# 
# Track frame offsets:
#       183
#       15320
#       39473
#       59193
#       74983
#       90200
#       114838
#       121093
#       176165
#       189043
#       217465
#       233458
#       252568
#       267518
#       289493
# 
# Disc length: 4452 seconds
# 
# Revision: 5
# Processed by: cddbd v1.5.2PL0 Copyright (c) Steve Scherf et al.
# Submitted via: Grip 3.2.0
# 
DISCID=e011620f
DTITLE=Various Artist - Blues With A Feelin'
DYEAR=1991
DGENRE=Blues
TTITLE0=Isaac Scott - Help
TTITLE1=U.P. Wilson With Paul Orta And The Kingpins - Baby What You Want Me To
TTITLE1=Do
TTITLE2=Fenton Robinson - Somebody Loan Me A Dime
TTITLE3=Clarence Edwards - Rocky Mountains
TTITLE4=Buddy Guy And Junior Wells - Hoodoo Man Blues
TTITLE5=Byther Smith - Hold That Train
TTITLE6=Muddy Waters - Baby Please Don't Go
TTITLE7=Luther 'Guitar Jr.' Johnson With The Muddy Waters Band - I Got A Mind 
TTITLE7=To Travel
TTITLE8=John Lee Hooker - My Baby's Got Something
TTITLE9=Billy Boy Arnold With Tony McPhee - Blue And Lonesome
TTITLE10=Buddy Reed - Rialto Rock
TTITLE11=Sunnyland Slim - Soft And Mellow Stella
TTITLE12=Greg 'Fingers' Taylor WithAnson Funderburgh And The Rockets - Soul Sur
TTITLE12=vivor
TTITLE13=Mighty Houserockers Featuring Les Wilson - Blue Light
TTITLE14=Luther Allison - The Thrill Is Gone
EXTD=
EXTT0=
EXTT1=
EXTT2=
EXTT3=
EXTT4=
EXTT5=
EXTT6=
EXTT7=
EXTT8=
EXTT9=
EXTT10=
EXTT11=
EXTT12=
EXTT13=
EXTT14=
PLAYORDER=
